Coordinates
version=1
nRows=8
nColumns=46
inDegrees=yes

Units are S.I. units (second, meters, Newtons, ...)
Angles are in degrees.

endheader
time	pelvis_tilt	pelvis_list	pelvis_rotation	pelvis_tx	pelvis_ty	pelvis_tz	bb_angle	bb_tx	bb_ty	bb_tz	hip_flexion_r	hip_adduction_r	hip_rotation_r	knee_angle_r	knee_angle_r_beta	ankle_angle_r	subtalar_angle_r	mtp_angle_r	crank_angle_r	hip_flexion_l	hip_adduction_l	hip_rotation_l	knee_angle_l	knee_angle_l_beta	ankle_angle_l	subtalar_angle_l	mtp_angle_l	crank_angle_l	lumbar_extension	lumbar_bending	lumbar_rotation	arm_flex_r	arm_add_r	arm_rot_r	elbow_flex_r	pro_sup_r	wrist_flex_r	wrist_dev_r	arm_flex_l	arm_add_l	arm_rot_l	elbow_flex_l	pro_sup_l	wrist_flex_l	wrist_dev_l
      5.00500000	    -23.40908850	     -4.27703105	     -7.19004537	      0.14735463	      1.07238479	     -0.22383228	      0.00000000	      0.50000000	      0.00000000	      0.25000000	     88.83034532	      4.30399977	      1.34503799	     89.43754094	      1.56097956	      7.16061443	     -8.97845179	      0.00000000	      0.00000000	     52.13992229	    -11.51972241	     -1.79300884	     55.67068773	      0.97163680	    -32.68920707	    -22.12179991	      0.00000000	      0.00000000	    -60.32880312	     -0.72238149	      5.99029390	     89.16884695	    -16.77544725	     26.80105794	     74.74634735	     43.44798145	      0.00000000	      0.00000000	     84.27306706	    -12.33568041	     11.39760018	     72.85260782	     46.21614524	      0.00000000	      0.00000000
      5.01000000	    -23.15122051	     -3.67296181	     -6.94408849	      0.14739886	      1.07177669	     -0.22423324	      0.00000000	      0.50000000	      0.00000000	      0.25000000	     87.29197003	      4.00942071	      1.80928147	     86.98598710	      1.51819188	      7.82501997	     -9.35093250	      0.00000000	      0.00000000	     52.76934686	    -10.78302989	     -1.51039879	     58.26780624	      1.01696507	    -32.12456684	    -22.57000225	      0.00000000	      0.00000000	    -60.47963548	     -1.03448162	      5.21633624	     89.12026046	    -16.75235409	     26.74268666	     74.70801859	     43.41762325	      0.00000000	      0.00000000	     84.37402486	    -12.51241719	     11.45993444	     72.96830405	     46.25587482	      0.00000000	      0.00000000
      5.01500000	    -22.88792172	     -3.36536114	     -6.60322349	      0.14729069	      1.07111210	     -0.22471837	      0.00000000	      0.50000000	      0.00000000	      0.25000000	     85.67078726	      3.54634812	      1.80432804	     84.40551593	      1.47315416	      8.09082149	     -9.57466640	      0.00000000	      0.00000000	     53.54711787	    -10.26612901	     -0.97615715	     61.00494783	      1.06473720	    -31.10432981	    -22.18283902	      0.00000000	      0.00000000	    -60.68560314	     -0.98088452	      4.51400194	     89.12255135	    -16.30150804	     26.69395081	     74.58428662	     43.35299254	      0.00000000	      0.00000000	     84.45100536	    -13.28638264	     11.76657818	     73.18885048	     46.35668640	      0.00000000	      0.00000000
      5.02000000	    -22.55334720	     -2.73837812	     -6.25781801	      0.14730580	      1.07007817	     -0.22502037	      0.00000000	      0.50000000	      0.00000000	      0.25000000	     84.08228735	      3.13942399	      2.26490985	     81.97191178	      1.43067975	      8.23692867	    -10.01932168	      0.00000000	      0.00000000	     54.23153728	     -9.53195822	     -0.80795038	     63.75070519	      1.11265971	    -30.18467987	    -22.23513571	      0.00000000	      0.00000000	    -60.79746075	     -1.21353255	      3.68428208	     89.02570491	    -16.19118180	     26.60913618	     74.46474783	     43.31103865	      0.00000000	      0.00000000	     84.50070882	    -13.66570781	     12.01668419	     73.30264825	     46.41691430	      0.00000000	      0.00000000
      5.02500000	    -22.35069373	     -2.33012964	     -5.98001618	      0.14735313	      1.06888295	     -0.22505668	      0.00000000	      0.50000000	      0.00000000	      0.25000000	     82.57932127	      2.79976522	      2.41136219	     79.42801978	      1.38628046	      7.86430208	    -10.72459764	      0.00000000	      0.00000000	     55.13575942	     -9.12976737	     -0.53072586	     66.54411081	      1.16141383	    -28.71000292	    -21.06414787	      0.00000000	      0.00000000	    -60.82021413	     -1.21042103	      2.47064997	     88.99950478	    -14.77376970	     26.38385938	     73.53291566	     43.05250278	      0.00000000	      0.00000000	     84.27833219	    -16.08537846	     13.54940786	     74.32473984	     46.86284925	      0.00000000	      0.00000000
      5.03000000	    -22.04544884	     -1.52361350	     -5.62373346	      0.14758655	      1.06780723	     -0.22556335	      0.00000000	      0.50000000	      0.00000000	      0.25000000	     81.07265965	      2.13579436	      2.92688938	     77.00465644	      1.34398479	      7.66088386	    -10.66641674	      0.00000000	      0.00000000	     55.89099959	     -8.33239326	     -0.70885511	     69.08654903	      1.20578775	    -28.54389248	    -21.12484876	      0.00000000	      0.00000000	    -60.90247652	     -1.49570345	      1.70776054	     88.91652383	    -14.89549545	     26.31112435	     73.55235211	     43.04921443	      0.00000000	      0.00000000	     84.13517675	    -16.06579160	     13.64246628	     74.29360025	     46.87362932	      0.00000000	      0.00000000
      5.03500000	    -21.71886257	     -1.30452637	     -5.31401137	      0.14763708	      1.06626309	     -0.22595211	      0.00000000	      0.50000000	      0.00000000	      0.25000000	     79.56949619	      1.69426653	      2.83728035	     74.66286289	      1.30311279	      6.59936819	    -11.29304003	      0.00000000	      0.00000000	     56.89744892	     -8.08928191	     -0.41071051	     72.12182208	      1.25876326	    -26.90918154	    -19.96644701	      0.00000000	      0.00000000	    -61.05661521	     -1.42639900	      1.10387185	     88.84525106	    -14.55567795	     26.27498452	     73.51058312	     43.03767789	      0.00000000	      0.00000000	     84.34867668	    -17.05348870	     14.21333391	     74.51944134	     47.00987186	      0.00000000	      0.00000000
      5.04000000	    -21.29257167	     -0.69408568	     -4.97639164	      0.14789792	      1.06485783	     -0.22642136	      0.00000000	      0.50000000	      0.00000000	      0.25000000	     78.14830043	      0.99743755	      3.09305968	     72.56674565	      1.26652864	      5.68779411	    -11.01569307	      0.00000000	      0.00000000	     57.72921475	     -7.54901531	     -0.58140232	     74.88275581	      1.30695064	    -26.28011050	    -19.82437228	      0.00000000	      0.00000000	    -61.24177188	     -1.62390166	      0.41943789	     88.73055602	    -14.64589879	     26.19324177	     73.43304325	     43.02366279	      0.00000000	      0.00000000	     84.44300114	    -17.32445408	     14.51082340	     74.60871957	     47.06850493	      0.00000000	      0.00000000
